<svg xmlns="http://www.w3.org/2000/svg" xmlns:xlink="http://www.w3.org/1999/xlink" width="348" height="178" viewBox="0 0 348 178">
  <defs>
    <filter id="Rectangle_4839" x="-9" y="-6" width="366" height="196" filterUnits="userSpaceOnUse">
      <feOffset dy="3" input="SourceAlpha"/>
      <feGaussianBlur stdDeviation="3" result="blur"/>
      <feFlood flood-opacity="0.161"/>
      <feComposite operator="in" in2="blur"/>
      <feComposite in="SourceGraphic"/>
    </filter>
    <clipPath id="clip-path">
      <g transform="matrix(1, 0, 0, 1, 0, 0)" filter="url(#Rectangle_4839)">
        <rect id="Rectangle_4839-2" data-name="Rectangle 4839" width="348" height="178" transform="translate(790 4891)" fill="#fff"/>
      </g>
    </clipPath>
  </defs>
  <g id="Mask_Group_10" data-name="Mask Group 10" transform="translate(-790 -4891)" clip-path="url(#clip-path)">
    <path id="Icon_ionic-md-arrow-round-down" data-name="Icon ionic-md-arrow-round-down" d="M6.848,16.94l7.4,7.625a1.682,1.682,0,0,0,1.237.5h.022a1.682,1.682,0,0,0,1.237-.5l7.4-7.625a1.633,1.633,0,0,0,0-2.385,1.826,1.826,0,0,0-2.5,0l-4.384,4.583V7.322a1.769,1.769,0,0,0-3.534,0V19.137L9.343,14.555a1.826,1.826,0,0,0-2.5,0A1.633,1.633,0,0,0,6.848,16.94Z" transform="translate(1090.202 5041.343) rotate(-43)" fill="#fff"/>
  </g>
</svg>
